<?xml version="1.0" encoding="UTF-8"?>
<svg width="26px" height="26px" viewBox="0 0 26 26" version="1.1" xmlns="http://www.w3.org/2000/svg" xmlns:xlink="http://www.w3.org/1999/xlink">
    <title>More / 26x26</title>
    <g id="Icons" stroke="none" stroke-width="1" fill="none" fill-rule="evenodd">
        <g transform="translate(-106, -704)" id="26x26-Icon">
            <g transform="translate(50, 170)">
                <g id="More-/-26x26" transform="translate(56, 534)">
                    <polygon id="Background" points="0 0 26 0 26 26 0 26"></polygon>
                    <path d="M13,22.39 C13.99411,22.39 14.8,21.58411 14.8,20.59 C14.8,19.59589 13.99411,18.79 13,18.79 C12.00589,18.79 11.2,19.59589 11.2,20.59 C11.2,21.58411 12.00589,22.39 13,22.39 Z" id="Vector" fill="#303030"></path>
                    <path d="M13,14.8 C13.99411,14.8 14.8,13.99411 14.8,13 C14.8,12.00589 13.99411,11.2 13,11.2 C12.00589,11.2 11.2,12.00589 11.2,13 C11.2,13.99411 12.00589,14.8 13,14.8 Z" id="Vector" fill="#303030"></path>
                    <path d="M13,7.22 C13.99411,7.22 14.8,6.41411 14.8,5.42 C14.8,4.42589 13.99411,3.62 13,3.62 C12.00589,3.62 11.2,4.42589 11.2,5.42 C11.2,6.41411 12.00589,7.22 13,7.22 Z" id="Vector" fill="#303030"></path>
                </g>
            </g>
        </g>
    </g>
</svg>