<?xml version="1.0" encoding="UTF-8"?>
<svg width="26px" height="26px" viewBox="0 0 26 26" version="1.1" xmlns="http://www.w3.org/2000/svg" xmlns:xlink="http://www.w3.org/1999/xlink">
    <title>Search / 26x26</title>
    <g id="Icons" stroke="none" stroke-width="1" fill="none" fill-rule="evenodd">
        <g transform="translate(-162, -424)" id="26x26-Icon">
            <g transform="translate(50, 170)">
                <g id="Search-/-26x26" transform="translate(112, 254)">
                    <polygon id="Background" points="0 0 26 0 26 26 0 26"></polygon>
                    <g id="Vector" transform="translate(3.25, 3.25)" fill="#303030">
                        <path d="M8.39714015,18.129537 C3.29347923,17.9868574 -0.8,13.8048564 -0.8,8.66667 L-0.79623689,8.39714015 C-0.653555039,3.29347923 3.5285131,-0.8 8.66667,-0.8 L8.93620131,-0.79623689 C14.0398884,-0.653555039 18.1333,3.5285131 18.1333,8.66667 L18.129537,8.93620131 C17.9868574,14.0398884 13.8048564,18.1333 8.66667,18.1333 Z M8.91169576,16.5295567 C13.1429518,16.4001015 16.5333,12.9293258 16.5333,8.66667 L16.5295567,8.42164366 C16.4001015,4.19037705 12.9293258,0.8 8.66667,0.8 L8.42164366,0.803743381 C4.19037705,0.93319964 0.8,4.40400434 0.8,8.66667 L0.803743381,8.91169576 C0.93319964,13.1429518 4.40400434,16.5333 8.66667,16.5333 Z" id="Vector-border"></path>
                    </g>
                    <g id="Vector" transform="translate(18.04, 18.04)" fill="#303030">
                        <path d="M-0.56568,0.56568 L-0.643139504,0.475963576 C-0.875518017,0.162777851 -0.849698182,-0.281661818 -0.56568,-0.56568 C-0.25326,-0.8781 0.25327,-0.8781 0.56569,-0.56568 L5.27818,4.14681 C5.5906,4.45923 5.5906,4.96577 5.27818,5.27818 C4.96577,5.5906 4.45923,5.5906 4.14681,5.27818 L-0.56568,0.56568 Z" id="Vector-border"></path>
                    </g>
                </g>
            </g>
        </g>
    </g>
</svg>