<?xml version="1.0" encoding="UTF-8"?>
<svg width="26px" height="26px" viewBox="0 0 26 26" version="1.1" xmlns="http://www.w3.org/2000/svg" xmlns:xlink="http://www.w3.org/1999/xlink">
    <title>Camera / 26x26</title>
    <g id="Icons" stroke="none" stroke-width="1" fill="none" fill-rule="evenodd">
        <g transform="translate(-50, -312)" id="26x26-Icon">
            <g transform="translate(50, 170)">
                <g id="Camera-/-26x26" transform="translate(0, 142)">
                    <polygon id="Background" points="0 0 26 0 26 26 0 26"></polygon>
                    <g id="Vector" transform="translate(1.08, 3.25)" fill="#303030">
                        <path d="M23.7644,19.4311 C23.2081,19.9874 22.4535,20.3 21.6667,20.3 L21.6667,18.7 C22.0291,18.7 22.3767,18.556 22.633,18.2997 C22.8893,18.0434 23.0333,17.6958 23.0333,17.3333 L23.0333,5.41667 L24.6333,5.41667 L24.6333,17.3333 L24.6256036,17.5469588 C24.5795799,18.1847917 24.3285367,18.790967 23.9100468,19.2745652 Z M21.6667,2.45 C22.4535,2.45 23.2081,2.76256 23.7644,3.31892 C24.3208,3.87527 24.6333,4.62986 24.6333,5.41667 L23.0333,5.41667 C23.0333,5.0542 22.8893,4.70659 22.633,4.45029 L22.5177904,4.34741563 C22.2770837,4.15578857 21.9773286,4.05 21.6667,4.05 L21.6667,2.45 Z M7.16564,3.69376 C7.01727,3.91632 6.76748,4.05 6.5,4.05 L2.16667,4.05 L2.0124584,4.05872335 C1.70674633,4.09343204 1.41997571,4.23060429 1.20029,4.45029 L1.09741563,4.56550038 C0.905788571,4.80621041 0.8,5.10598143 0.8,5.41667 L-0.8,5.41667 C-0.8,4.62986 -0.48744,3.87527 0.06892,3.31892 C0.62527,2.76256 1.37986,2.45 2.16667,2.45 L6.072,2.449 L8.00103,-0.44376 L8.0705819,-0.533570612 C8.22112714,-0.701786122 8.43739286,-0.8 8.66667,-0.8 L15.1667,-0.8 L15.2799781,-0.791946122 C15.4661647,-0.765317551 15.6372638,-0.673750204 15.7627362,-0.533570612 L15.8323,-0.44376 L17.76,2.449 L21.6667,2.45 L21.6667,4.05 L17.3333,4.05 L17.2199904,4.04194612 C16.9965245,4.00999184 16.7949,3.88452571 16.6677,3.69376 L14.738,0.8 L9.094,0.8 L7.16564,3.69376 L7.1057324,3.6538216 C7.1456708,3.6804472 7.16564,3.69376 7.16564,3.69376 Z M-0.8,17.3333 L-0.8,5.41667 L0.8,5.41667 L0.8,17.3333 L0.808723353,17.4875222 C0.837647259,17.7422962 0.937726414,17.9838997 1.09741563,18.1844901 L1.20029,18.2997 C1.45659,18.556 1.8042,18.7 2.16667,18.7 L21.6667,18.7 L21.6667,20.3 L2.16667,20.3 L1.95300926,20.2923014 C1.24430182,20.2411496 0.574701818,19.9368273 0.06892,19.4311 C-0.48744,18.8747 -0.8,18.1201 -0.8,17.3333 Z" id="Vector-border"></path>
                    </g>
                    <g id="Vector" transform="translate(8.67, 9.75)" fill="#303030">
                        <path d="M4.11633691,9.4621666 C1.38192103,9.34845657 -0.8,7.09569615 -0.8,4.33333 L-0.795496618,4.11633691 C-0.681787081,1.38192103 1.57096385,-0.8 4.33333,-0.8 L4.55032384,-0.795496618 C7.28474897,-0.681787081 9.46667,1.57096385 9.46667,4.33333 L9.46216662,4.55032311 C9.34845707,7.28473948 7.0957059,9.46667 4.33333,9.46667 Z M4.52719449,7.86144181 C6.3884443,7.76079747 7.86667,6.219693 7.86667,4.33333 L7.86144181,4.13946647 C7.76079747,2.2782257 6.219693,0.8 4.33333,0.8 L4.13946647,0.805228194 C2.2782257,0.905872522 0.8,2.44697667 0.8,4.33333 L0.805228194,4.52719449 C0.905872522,6.3884443 2.44697667,7.86667 4.33333,7.86667 Z" id="Vector-border"></path>
                    </g>
                </g>
            </g>
        </g>
    </g>
</svg>