<?xml version="1.0" encoding="UTF-8"?>
<svg width="26px" height="26px" viewBox="0 0 26 26" version="1.1" xmlns="http://www.w3.org/2000/svg" xmlns:xlink="http://www.w3.org/1999/xlink">
    <title>Smile / 26x26</title>
    <g id="Icons" stroke="none" stroke-width="1" fill="none" fill-rule="evenodd">
        <g transform="translate(-274, -424)" id="26x26-Icon">
            <g transform="translate(50, 170)">
                <g id="Smile-/-26x26" transform="translate(224, 254)">
                    <polygon id="Background" points="0 0 26 0 26 26 0 26"></polygon>
                    <g id="Vector" transform="translate(2.17, 2.17)" fill="#303030">
                        <path d="M10.8333,0.8 C16.3746,0.8 20.8667,5.29208 20.8667,10.8333 C20.8667,10.8333 22.4667,10.8333 22.4667,10.8333 C22.4667,4.40842 17.2582,-0.8 10.8333,-0.8 C10.8333,-0.8 10.8333,0.8 10.8333,0.8 Z M0.8,10.8333 C0.8,5.29208 5.29208,0.8 10.8333,0.8 C10.8333,0.8 10.8333,-0.8 10.8333,-0.8 C4.40842,-0.8 -0.8,4.40842 -0.8,10.8333 C-0.8,10.8333 0.8,10.8333 0.8,10.8333 Z M10.8333,20.8667 C5.29208,20.8667 0.8,16.3746 0.8,10.8333 C0.8,10.8333 -0.8,10.8333 -0.8,10.8333 C-0.8,17.2582 4.40842,22.4667 10.8333,22.4667 C10.8333,22.4667 10.8333,20.8667 10.8333,20.8667 Z M20.8667,10.8333 C20.8667,16.3746 16.3746,20.8667 10.8333,20.8667 C10.8333,20.8667 10.8333,22.4667 10.8333,22.4667 C17.2582,22.4667 22.4667,17.2582 22.4667,10.8333 C22.4667,10.8333 20.8667,10.8333 20.8667,10.8333 Z" id="Vector-border"></path>
                    </g>
                    <g id="Vector" transform="translate(8.67, 15.17)" fill="#303030">
                        <path d="M8.02667,-0.48 C8.29176,-0.83346 8.7932,-0.9051 9.14667,-0.64 C9.50013,-0.3749 9.57176,0.12654 9.30667,0.48 C9.30667,0.48 9.21008716,0.407562872 9.06998243,0.302484321 C9.13103322,0.348405601 9.17602335,0.382193971 9.20947001,0.407332181 L9.26553873,0.44951032 C9.30643255,0.4803172 9.30635424,0.480422 9.30627707,0.48053 C9.30061,0.48801 9.29838,0.49093 9.29574,0.49436 C9.29045,0.50122 9.28354,0.51011 9.27499,0.5209 C9.25791,0.54247 9.23432,0.57167 9.20433,0.6074 C9.14441,0.67879 9.05865,0.77665 8.94803,0.89207 C8.72746,1.12223 8.40427,1.42624 7.98616,1.73032 C7.15302,2.33625 5.90793,2.96667 4.33333,2.96667 L4.33333,1.36668 C5.46708,1.36668 6.38865,0.91376 7.04509,0.43635 C7.37177,0.19876 7.6241,-0.03889 7.79285,-0.21498 C7.8769,-0.30268 7.93925,-0.3741 7.97877,-0.4212 C7.99851,-0.44471 8.01247,-0.46206 8.02052,-0.47223 C8.02454,-0.47731 8.02708,-0.48058 8.02811,-0.48192 Z M-0.699291366,0.388774491 C-0.891202917,0.0446079167 -0.804005,-0.396991667 -0.48,-0.64 C-0.12654,-0.9051 0.3749,-0.83346 0.64,-0.48 L0.639,-0.48 L0.64614,-0.47223 C0.65419,-0.46207 0.66815,-0.44472 0.68789,-0.4212 C0.72741,-0.3741 0.78976,-0.30268 0.87381,-0.21498 C1.04256,-0.03889 1.29489,0.19877 1.62157,0.43635 C2.27801,0.91376 3.19958,1.36667 4.33332,1.36667 L4.33332,2.96667 C2.75873,2.96667 1.51364,2.33625 0.68049,1.73032 C0.26238,1.42624 -0.06081,1.12223 -0.28138,0.89207 C-0.392,0.77664 -0.47776,0.67879 -0.53768,0.6074 C-0.56767,0.57167 -0.59126,0.54247 -0.60834,0.5209 C-0.61688,0.51011 -0.6238,0.50122 -0.62908,0.49436 C-0.63172,0.49093 -0.63396,0.48801 -0.63578,0.48561 Z" id="Vector-border"></path>
                    </g>
                </g>
            </g>
        </g>
    </g>
</svg>