<?xml version="1.0" encoding="UTF-8"?>
<svg width="26px" height="26px" viewBox="0 0 26 26" version="1.1" xmlns="http://www.w3.org/2000/svg" xmlns:xlink="http://www.w3.org/1999/xlink">
    <title>Check / 26x26</title>
    <g id="Icons" stroke="none" stroke-width="1" fill="none" fill-rule="evenodd">
        <g transform="translate(-106, -312)" id="26x26-Icon">
            <g transform="translate(50, 170)">
                <g id="Check-/-26x26" transform="translate(56, 142)">
                    <polygon id="Background" points="0 0 26 0 26 26 0 26"></polygon>
                    <g id="Vector" transform="translate(4.33, 6.5)" fill="#303030">
                        <path d="M17.899,0.5657 L5.98235,12.4824 C5.66993,12.7948 5.1634,12.7948 4.85098,12.4824 L-0.56568,7.06568 L-0.643139504,6.97595583 C-0.875518017,6.66277612 -0.849698182,6.21832818 -0.56568,5.93431 C-0.25326,5.62189 0.25327,5.62189 0.56569,5.93431 L5.416,10.785 L16.7676,-0.56568 L17.0609259,-0.272361852 C16.8933111,-0.439972222 16.7676,-0.56568 16.7676,-0.56568 C17.0801,-0.8781 17.5866,-0.8781 17.899,-0.56568 C18.2114,-0.25326 18.2114,0.25327 17.899,0.56569 C17.899,0.56569 17.853744,0.5204352 17.7813344,0.44802752 L17.3897862,0.0564896948 C17.3522405,0.0189449719 17.3143595,-0.0189349719 17.2768138,-0.0564796948 L17.899,0.5657 Z" id="Vector-border"></path>
                    </g>
                </g>
            </g>
        </g>
    </g>
</svg>