<?xml version="1.0" encoding="UTF-8"?>
<svg width="35px" height="34px" viewBox="0 0 35 34" version="1.1" xmlns="http://www.w3.org/2000/svg" xmlns:xlink="http://www.w3.org/1999/xlink">
    <title>Send / 26x26</title>
    <g id="Icons" stroke="none" stroke-width="1" fill="none" fill-rule="evenodd">
        <g transform="translate(-41, -476)" id="26x26-Icon">
            <g transform="translate(50, 170)">
                <g id="Send-/-26x26" transform="translate(0, 310)">
                    <polygon id="Background" points="0 0 26 0 26 26 0 26"></polygon>
                    <g id="Vector" transform="translate(14.84, 13) rotate(45) translate(-14.84, -13)translate(8.93, 7.09)" fill="#303030">
                        <path d="M12.39071,0.5657 L0.56569,12.39071 L-0.0564796948,11.7685138 C-0.0189349719,11.8060595 0.0189449719,11.8439405 0.0564896948,11.8814862 L0.56569,12.3907 C0.25327,12.7031 -0.25326,12.7031 -0.56568,12.3907 C-0.8781,12.0783 -0.8781,11.5717 -0.56568,11.2593 L11.2593,-0.56568 L11.3490231,-0.643139504 C11.6622041,-0.875518017 12.1067,-0.849698182 12.3907,-0.56568 C12.7031,-0.25326 12.7031,0.25327 12.3907,0.56569 L11.8814862,0.0564896948 C11.8439405,0.0189449719 11.8060595,-0.0189349719 11.7685138,-0.0564796948 L12.39071,0.5657 Z" id="Vector-border"></path>
                    </g>
                    <g id="Vector" transform="translate(8, 13) rotate(45) translate(-8, -13)translate(-2.75, 2.25)" fill="#303030">
                        <path d="M22.0657,-0.56568 C22.283,-0.34837 22.3566,-0.02579 22.2551,0.26428 L14.7301,21.7643 C14.6217,22.0739 14.3354,22.286 14.0076,22.2993 C13.6799,22.3127 13.3772,22.1247 13.244,21.8249 L9.068,12.43 L-0.32491,8.25605 C-0.62466,8.12283 -0.81271,7.82013 -0.79934,7.49239 C-0.78596,7.16465 -0.57388,6.87827 -0.26428,6.76991 L21.2357,-0.75508 L21.3457418,-0.785005039 C21.6048047,-0.835959844 21.8755625,-0.75582625 22.0657,-0.56568 Z M20.195,1.304 L2.169,7.613 L9.99991,11.094 L9.86638873,11.3944033 C9.95540291,11.1941344 9.99991,11.094 9.99991,11.094 C10.1809,11.1744 10.3256,11.3191 10.406,11.5001 L13.886,19.33 L20.195,1.304 Z" id="Vector-border"></path>
                    </g>
                </g>
            </g>
        </g>
    </g>
</svg>